<?xml version="1.0" encoding="UTF-8"?>
<svg version="1.1" xmlns="http://www.w3.org/2000/svg" width="320" height="320">
<path d="M0 0 C105.6 0 211.2 0 320 0 C320 105.6 320 211.2 320 320 C214.4 320 108.8 320 0 320 C0 214.4 0 108.8 0 0 Z " fill="#000001" transform="translate(0,0)"/>
<path d="M0 0 C1.20970459 0.00523682 2.41940918 0.01047363 3.66577148 0.01586914 C4.97094727 0.0190918 6.27612305 0.02231445 7.62084961 0.02563477 C9.00952213 0.03399138 10.39819401 0.04245634 11.78686523 0.05102539 C13.17944179 0.05603873 14.57202005 0.06060193 15.96459961 0.06469727 C19.38456394 0.07653105 22.80444367 0.09301659 26.22436523 0.11352539 C25.5590985 4.11375939 24.89188504 8.11366679 24.22436523 12.11352539 C24.01086426 13.39549805 23.79736328 14.6774707 23.57739258 15.99829102 C22.98474749 19.55105052 22.38594154 23.10274401 21.78466797 26.65405273 C21.53980602 28.10526467 21.2965899 29.55675545 21.05517578 31.00854492 C18.81701381 44.45592522 16.06960853 57.78250014 13.22436523 71.11352539 C20.94392958 71.02897733 28.66330759 70.93403826 36.3825779 70.82599831 C39.96733387 70.77614859 43.55206199 70.72981811 47.13696289 70.69165039 C50.59951764 70.65465376 54.06183272 70.60825596 57.52418137 70.55546188 C59.48158661 70.52803406 61.43911909 70.5102295 63.39663696 70.49258423 C64.59742889 70.47271454 65.79822083 70.45284485 67.03540039 70.43237305 C68.08797028 70.41904938 69.14054016 70.40572571 70.2250061 70.39199829 C74.95229748 69.95309702 78.2930909 68.87547712 81.97436523 65.86352539 C86.36737167 60.49429531 86.46576952 55.39332092 86.58764648 48.69946289 C86.15916769 45.64943103 85.35068625 44.31454152 83.22436523 42.11352539 C79.6195199 40.91191028 76.25146667 40.88335403 72.49389648 40.79711914 C71.7434758 40.77633804 70.99305511 40.75555695 70.21989441 40.73414612 C67.82564339 40.66882613 65.43128385 40.60984747 63.03686523 40.55102539 C61.41250511 40.50782346 59.78815591 40.46420863 58.16381836 40.42016602 C54.18411153 40.31316276 50.20429566 40.21184602 46.22436523 40.11352539 C45.71948009 36.05161696 45.22131333 31.98891188 44.72436523 27.92602539 C44.5812793 26.77553711 44.43819336 25.62504883 44.29077148 24.43969727 C44.15541992 23.32788086 44.02006836 22.21606445 43.88061523 21.07055664 C43.69208984 19.53878784 43.69208984 19.53878784 43.49975586 17.97607422 C43.24539456 15.33211478 43.17320803 12.76730549 43.22436523 10.11352539 C49.27088798 10.03873017 55.31713461 9.98462125 61.36401367 9.94873047 C63.4161448 9.93375023 65.46824451 9.91335893 67.52026367 9.88720703 C98.26155671 9.50556001 98.26155671 9.50556001 108.90405273 18.53930664 C116.77282741 26.74084044 117.81005184 36.68634013 117.69702148 47.55541992 C117.13753262 63.77755619 111.05942612 77.36708406 99.30249023 88.59399414 C89.81266288 96.36168277 79.74594137 100.438605 67.54711914 100.34057617 C66.11203003 100.34101425 66.11203003 100.34101425 64.64794922 100.34146118 C61.49884846 100.34007251 58.34998695 100.32453296 55.20092773 100.30883789 C53.01232024 100.30510612 50.82371108 100.30225992 48.63510132 100.30026245 C42.88445393 100.29263893 37.13390813 100.27300137 31.38330078 100.25085449 C25.51132583 100.2303685 19.6393344 100.22125484 13.76733398 100.21118164 C2.25296652 100.18975433 -9.26132566 100.15563379 -20.77563477 100.11352539 C-20.32148593 90.96790755 -18.97985035 82.15289181 -17.1853714 73.18803024 C-16.50844422 69.76073426 -15.88466716 66.32390557 -15.25756836 62.88720703 C-14.99833889 61.4760462 -14.73892672 60.06491893 -14.4793396 58.65382385 C-14.34804028 57.93933138 -14.21674095 57.22483891 -14.08146286 56.48869514 C-13.22197308 51.81558416 -12.35879207 47.14315318 -11.49608421 42.47063541 C-10.74222716 38.38654809 -9.98986595 34.30219515 -9.24047852 30.21728516 C-8.50774842 26.22359821 -7.77123719 22.23062574 -7.03206253 18.23812675 C-6.75237978 16.7236511 -6.47409091 15.20891736 -6.19721603 13.69392586 C-5.81339708 11.59490562 -5.4247567 9.49683394 -5.03491211 7.39892578 C-4.81523773 6.20586319 -4.59556335 5.0128006 -4.36923218 3.78358459 C-3.56045485 0.14562508 -3.56045485 0.14562508 0 0 Z " fill="#FBFBFB" transform="translate(100.775634765625,152.886474609375)"/>
<path d="M0 0 C2.60623001 -0.18268068 5.17188379 -0.19832565 7.784482 -0.16587257 C8.77840961 -0.17302788 9.77233723 -0.18018318 10.79638386 -0.18755531 C14.0944745 -0.2045111 17.39121777 -0.18498471 20.68926716 -0.16367531 C22.98554312 -0.16450402 25.28181903 -0.16696351 27.57809162 -0.17098427 C32.40195195 -0.17384784 37.22534948 -0.1590976 42.04913044 -0.13169289 C48.20345666 -0.0978012 54.35694471 -0.10355934 60.51130962 -0.12235546 C65.26088017 -0.13298382 70.01025952 -0.12393159 74.75981236 -0.10897064 C77.02658868 -0.10381814 79.29338525 -0.10423467 81.56015873 -0.11051559 C110.78282073 -0.16103972 110.78282073 -0.16103972 121.38848591 8.69569969 C128.64589052 16.18454773 131.47822255 23.94171369 131.35332966 34.21523094 C131.34656208 35.01364403 131.3397945 35.81205711 131.33282185 36.63466454 C131.16928973 45.98451817 129.66572961 53.25291104 125.10332966 61.46523094 C121.16802807 61.05098867 117.94888964 60.03049049 114.35332966 58.46523094 C109.29140532 56.34199216 104.55795856 55.69734281 99.10332966 55.46523094 C99.26832966 54.22773094 99.43332966 52.99023094 99.60332966 51.71523094 C100.22888833 46.01267435 100.62997971 40.18697132 100.10332966 34.46523094 C96.94619121 31.3080925 93.76861008 31.34155168 89.4462862 31.30701256 C88.5152306 31.29722374 87.584175 31.28743492 86.62490559 31.27734947 C85.61070545 31.27159401 84.59650532 31.26583855 83.55157185 31.25990868 C82.47809498 31.25000908 81.40461811 31.24010948 80.29861164 31.2299099 C76.74916511 31.19831372 73.19970519 31.17354478 69.65020466 31.14882469 C67.18969086 31.12825355 64.72918058 31.10725704 62.2686739 31.08585167 C55.79142832 31.03064759 49.31415095 30.98123091 42.83685017 30.93300438 C36.22773119 30.88277726 29.61865842 30.8270975 23.00957966 30.77187157 C10.04086939 30.66431032 -2.92788032 30.56267564 -15.89667034 30.46523094 C-15.5870817 29.01486359 -15.27403741 27.56523354 -14.95952129 26.11592674 C-14.785563 25.30858715 -14.61160471 24.50124756 -14.43237495 23.66944313 C-13.85647211 21.29983114 -13.07305836 19.36383703 -11.83807659 17.26210594 C-11.45200237 16.59179344 -11.06592815 15.92148094 -10.66815472 15.23085594 C-10.26918987 14.56569969 -9.87022503 13.90054344 -9.45917034 13.21523094 C-9.06407269 12.53460594 -8.66897503 11.85398094 -8.26190472 11.15273094 C-7.1530984 9.24875737 -6.02943147 7.3550342 -4.89667034 5.46523094 C-4.41856663 4.18867386 -4.41856663 4.18867386 -3.93080425 2.88632774 C-1.89667034 0.46523094 -1.89667034 0.46523094 0 0 Z " fill="#FBFBFB" transform="translate(86.8966703414917,102.53476905822754)"/>
<path d="M0 0 C19.21360516 16.05439991 31.76670633 37.17514079 34.25 62.37792969 C34.90853924 74.25159171 34.17719612 85.13833579 31.37890625 96.70214844 C31.15340088 97.68417236 31.15340088 97.68417236 30.92333984 98.68603516 C26.74969629 116.26907971 14.83517418 135.71502146 -0.62109375 145.70214844 C-1.28109375 145.70214844 -1.94109375 145.70214844 -2.62109375 145.70214844 C-2.95109375 146.69214844 -3.28109375 147.68214844 -3.62109375 148.70214844 C-4.28109375 148.70214844 -4.94109375 148.70214844 -5.62109375 148.70214844 C-4.46653956 145.4484048 -2.99090388 142.68247442 -1.18359375 139.76464844 C1.06428292 135.83739879 1.99892068 132.26979322 2.81640625 127.82714844 C4.14716041 120.85190333 6.82231542 115.7672526 10.37890625 109.70214844 C21.22087154 89.53714053 21.92096902 67.31599639 15.453125 45.59277344 C8.79787007 27.68408743 -4.4432667 12.23473655 -21.30859375 3.57714844 C-21.9310498 3.25238525 -22.55350586 2.92762207 -23.19482422 2.59301758 C-34.14179187 -2.83633637 -44.50659724 -4.92723632 -56.68359375 -4.67285156 C-57.85986328 -4.6715625 -59.03613281 -4.67027344 -60.24804688 -4.66894531 C-69.8637257 -4.57326692 -79.69931937 -4.0003514 -88.62109375 -0.11035156 C-89.62011719 0.32019531 -90.61914062 0.75074219 -91.6484375 1.19433594 C-94.70208839 2.74323113 -97.3641765 4.57752449 -100.18359375 6.51464844 C-108.07586684 11.3827795 -116.70085862 10.2899882 -125.62109375 9.70214844 C-120.50607403 -2.34115196 -103.72693351 -10.38938323 -92.18359375 -15.17285156 C-60.94041485 -26.17075498 -25.89554482 -20.73203558 0 0 Z " fill="#0478F7" transform="translate(218.62109375,87.2978515625)"/>
<path d="M0 0 C1.79244141 0.01740234 1.79244141 0.01740234 3.62109375 0.03515625 C5.41740234 0.04869141 5.41740234 0.04869141 7.25 0.0625 C8.17683594 0.07410156 9.10367188 0.08570313 10.05859375 0.09765625 C10.08583525 1.51421418 10.10509842 2.9309267 10.12109375 4.34765625 C10.13269531 5.1365625 10.14429687 5.92546875 10.15625 6.73828125 C10.05859375 9.09765625 10.05859375 9.09765625 9.56298828 10.97631836 C8.66838324 14.73876908 8.87404411 18.55993277 8.87109375 22.41015625 C8.85884766 23.23966797 8.84660156 24.06917969 8.83398438 24.92382812 C8.82184561 30.05043508 9.60274956 34.1523178 11.05859375 39.09765625 C11.33543384 41.85333287 11.34447507 44.58007302 11.30859375 47.34765625 C11.30327637 48.08765869 11.29795898 48.82766113 11.29248047 49.59008789 C11.02555848 65.13069152 11.02555848 65.13069152 7.05859375 69.09765625 C-1.64349256 52.83404834 -6.11690568 38.12403627 -6.12890625 19.53515625 C-6.14115234 18.53291016 -6.15339844 17.53066406 -6.16601562 16.49804688 C-6.17693645 10.96847075 -5.86190463 6.30227825 -3.94140625 1.09765625 C-2.94140625 0.09765625 -2.94140625 0.09765625 0 0 Z " fill="#027AFA" transform="translate(72.94140625,138.90234375)"/>
<path d="M0 0 C1.79244141 0.01740234 1.79244141 0.01740234 3.62109375 0.03515625 C5.41740234 0.04869141 5.41740234 0.04869141 7.25 0.0625 C8.17683594 0.07410156 9.10367188 0.08570313 10.05859375 0.09765625 C10.08583525 1.51421418 10.10509842 2.9309267 10.12109375 4.34765625 C10.13269531 5.1365625 10.14429687 5.92546875 10.15625 6.73828125 C10.05859375 9.09765625 10.05859375 9.09765625 9.56298828 10.97631836 C8.66838324 14.73876908 8.87404411 18.55993277 8.87109375 22.41015625 C8.85884766 23.23966797 8.84660156 24.06917969 8.83398438 24.92382812 C8.82183232 30.05604749 9.6292408 34.14256602 11.05859375 39.09765625 C11.28850726 42.08311564 11.25025116 45.04326417 11.18359375 48.03515625 C11.17457031 48.81439453 11.16554688 49.59363281 11.15625 50.39648438 C11.13293066 52.29701072 11.09706961 54.19737633 11.05859375 56.09765625 C10.72859375 56.09765625 10.39859375 56.09765625 10.05859375 56.09765625 C9.99800781 55.02644531 9.93742187 53.95523438 9.875 52.8515625 C9.79060838 51.45441234 9.70595969 50.05727768 9.62109375 48.66015625 C9.58177734 47.95310547 9.54246094 47.24605469 9.50195312 46.51757812 C9.58234937 43.01075206 9.58234937 43.01075206 8.05859375 40.09765625 C6.02606537 33.60646739 5.80488826 27.2822938 5.93359375 20.53515625 C5.94261719 19.62185547 5.95164062 18.70855469 5.9609375 17.76757812 C5.98422122 15.54398306 6.01691665 13.32096948 6.05859375 11.09765625 C6.71859375 11.09765625 7.37859375 11.09765625 8.05859375 11.09765625 C8.05859375 8.12765625 8.05859375 5.15765625 8.05859375 2.09765625 C4.75859375 2.09765625 1.45859375 2.09765625 -1.94140625 2.09765625 C-3.23627641 5.98226672 -3.06466665 9.65649581 -3.0390625 13.703125 C-3.03764755 14.54232986 -3.0362326 15.38153473 -3.03477478 16.24617004 C-3.0291784 18.92586841 -3.0166266 21.60548315 -3.00390625 24.28515625 C-2.99889078 26.10221233 -2.99432796 27.91926973 -2.99023438 29.73632812 C-2.97921016 34.19013638 -2.96194803 38.64388214 -2.94140625 43.09765625 C-6.81136426 35.93641636 -6.12377988 27.47590037 -6.12890625 19.53515625 C-6.14115234 18.53291016 -6.15339844 17.53066406 -6.16601562 16.49804688 C-6.17693645 10.96847075 -5.86190463 6.30227825 -3.94140625 1.09765625 C-2.94140625 0.09765625 -2.94140625 0.09765625 0 0 Z " fill="#1A6FD1" transform="translate(72.94140625,138.90234375)"/>
<path d="M0 0 C-0.68290772 9.42133916 -2.28298756 15.64719961 -7.5390625 23.57421875 C-9.25795754 25.95636315 -9.25795754 25.95636315 -9 29 C-9.66 29 -10.32 29 -11 29 C-11 27.02 -11 25.04 -11 23 C-12.32 23.33 -13.64 23.66 -15 24 C-14.59007812 23.13117188 -14.18015625 22.26234375 -13.7578125 21.3671875 C-13.21898437 20.21476562 -12.68015625 19.06234375 -12.125 17.875 C-11.59132812 16.73804688 -11.05765625 15.60109375 -10.5078125 14.4296875 C-8.9612823 11.07417097 -8.9612823 11.07417097 -7.9609375 7.75 C-6.69208205 4.11880391 -4.20181152 0 0 0 Z " fill="#0B101C" transform="translate(223,208)"/>
<path d="M0 0 C0.66 0 1.32 0 2 0 C3.35382777 3.32542161 4.68137028 6.66048182 6 10 C6.391875 10.969375 6.78375 11.93875 7.1875 12.9375 C8.21589788 16.81376894 8.48653617 20.61519338 8.75390625 24.609375 C8.85903395 27.01246236 8.85903395 27.01246236 10 29 C10.27108515 32.84817694 10.23171127 36.70586357 10.25 40.5625 C10.270625 41.62275391 10.29125 42.68300781 10.3125 43.77539062 C10.34144062 49.63948369 9.90970267 54.54161213 7.76342773 60.02294922 C6.51095554 63.2664797 5.79885213 66.62024099 5 70 C4.34 70 3.68 70 3 70 C3.59851409 64.74702198 4.4558158 59.67521886 5.5625 54.5 C8.86043136 37.59661712 8.17130546 17.49730347 0 2 C0 1.34 0 0.68 0 0 Z " fill="#010D29" transform="translate(245,122)"/>
<path d="M0 0 C0.66 0 1.32 0 2 0 C2.06058594 0.63808594 2.12117187 1.27617187 2.18359375 1.93359375 C2.26738281 2.75988281 2.35117188 3.58617187 2.4375 4.4375 C2.51871094 5.26121094 2.59992188 6.08492187 2.68359375 6.93359375 C2.78930815 8.98662025 2.78930815 8.98662025 4 10 C4.25498212 13.30448256 4.1852477 16.62437089 4.1875 19.9375 C4.19974609 20.85080078 4.21199219 21.76410156 4.22460938 22.70507812 C4.24332852 31.52179739 2.55680531 39.59906828 0 48 C-0.99 48 -1.98 48 -3 48 C-2.79503906 47.2265625 -2.59007812 46.453125 -2.37890625 45.65625 C1.58216853 30.34262119 1.66236946 15.6737692 0 0 Z " fill="#1972D4" transform="translate(237,140)"/>
<path d="M0 0 C1.04750157 3.33152755 1.00335257 6.0975502 0.6875 9.5625 C0.56955078 10.98755859 0.56955078 10.98755859 0.44921875 12.44140625 C0 15 0 15 -2 18 C-1.01 18 -0.02 18 1 18 C1 17.01 1 16.02 1 15 C1.99 15 2.98 15 4 15 C4 14.01 4 13.02 4 12 C4.99 12 5.98 12 7 12 C5.54253764 15.34314819 3.69015913 17.6078211 1.125 20.1875 C0.44695312 20.88230469 -0.23109375 21.57710937 -0.9296875 22.29296875 C-3.07590087 24.06258242 -4.37742995 24.34719577 -7 25 C-7.33 25.99 -7.66 26.98 -8 28 C-8.66 28 -9.32 28 -10 28 C-8.84544581 24.74625637 -7.36981013 21.98032599 -5.5625 19.0625 C-2.16511913 13.13216061 -1.16608673 6.66470708 0 0 Z " fill="#156FD2" transform="translate(223,208)"/>
<path d="M0 0 C4.39577761 -0.05815112 8.79145598 -0.09364767 13.1875 -0.125 C14.43337891 -0.14175781 15.67925781 -0.15851563 16.96289062 -0.17578125 C18.16494141 -0.18222656 19.36699219 -0.18867187 20.60546875 -0.1953125 C22.26292114 -0.21102295 22.26292114 -0.21102295 23.95385742 -0.22705078 C27.03654165 0.00272371 29.21840962 0.6918151 32 2 C32 2.33 32 2.66 32 3 C31.25016846 2.98952637 30.50033691 2.97905273 29.7277832 2.96826172 C26.25605769 2.92610905 22.78438633 2.90048842 19.3125 2.875 C18.13365234 2.85824219 16.95480469 2.84148437 15.74023438 2.82421875 C7.64005941 2.77983423 -0.03592235 3.52630919 -8 5 C-8 4.01 -8 3.02 -8 2 C-5.36 2 -2.72 2 0 2 C0 1.34 0 0.68 0 0 Z " fill="#00113A" transform="translate(144,65)"/>
<path d="M0 0 C1.32 0 2.64 0 4 0 C3.98952637 0.90242432 3.97905273 1.80484863 3.96826172 2.73461914 C3.93400464 6.10980833 3.90901633 9.48481045 3.89013672 12.86010742 C3.8801315 14.31586641 3.86652304 15.77160557 3.84912109 17.22729492 C3.82462956 19.3299654 3.81346206 21.43236824 3.8046875 23.53515625 C3.79421387 24.797229 3.78374023 26.05930176 3.77294922 27.35961914 C4.01065014 31.17075724 4.8986827 34.35618848 6 38 C6.22705078 40.35522461 6.22705078 40.35522461 6.1953125 42.40234375 C6.18886719 43.14677734 6.18242188 43.89121094 6.17578125 44.65820312 C6.15902344 45.41037109 6.14226562 46.16253906 6.125 46.9375 C6.11597656 47.71673828 6.10695313 48.49597656 6.09765625 49.29882812 C6.07433691 51.19935447 6.03847586 53.09972008 6 55 C5.67 55 5.34 55 5 55 C4.93941406 53.92878906 4.87882812 52.85757813 4.81640625 51.75390625 C4.73201463 50.35675609 4.64736594 48.95962143 4.5625 47.5625 C4.52318359 46.85544922 4.48386719 46.14839844 4.44335938 45.41992188 C4.52375562 41.91309581 4.52375562 41.91309581 3 39 C0.96747162 32.50881114 0.74629451 26.18463755 0.875 19.4375 C0.88402344 18.52419922 0.89304687 17.61089844 0.90234375 16.66992188 C0.92562747 14.44632681 0.9583229 12.22331323 1 10 C1.66 10 2.32 10 3 10 C3 7.03 3 4.06 3 1 C2.01 0.67 1.02 0.34 0 0 Z " fill="#196DCC" transform="translate(78,140)"/>
<path d="M0 0 C1.15892509 0.00424484 1.15892509 0.00424484 2.34126282 0.00857544 C4.80709368 0.01976372 7.27256031 0.04486547 9.73828125 0.0703125 C11.41080204 0.08034407 13.08332853 0.08946961 14.75585938 0.09765625 C18.85430684 0.11969858 22.95248231 0.15421887 27.05078125 0.1953125 C27.05078125 0.8553125 27.05078125 1.5153125 27.05078125 2.1953125 C27.87578125 2.2984375 28.70078125 2.4015625 29.55078125 2.5078125 C33.64367137 3.31177306 37.1761835 4.65883408 41.05078125 6.1953125 C41.05078125 6.8553125 41.05078125 7.5153125 41.05078125 8.1953125 C31.05078125 5.1953125 31.05078125 5.1953125 29.05224609 4.42700195 C20.94735539 1.53581864 12.89597361 1.85827213 4.42578125 2.0078125 C2.92970104 2.0228933 1.43360605 2.03657567 -0.0625 2.04882812 C-3.69171843 2.08154945 -7.32037123 2.13314194 -10.94921875 2.1953125 C-7.20917558 -0.29804961 -4.32360266 -0.05949978 0 0 Z " fill="#115CB3" transform="translate(154.94921875,80.8046875)"/>
<path d="M0 0 C0.66 0.33 1.32 0.66 2 1 C-0.04261745 4.06392618 -1.60448384 5.59109593 -5 7 C-8.16627145 7.53951339 -11.3568695 7.64656714 -14.5625 7.8125 C-15.85704102 7.90821289 -15.85704102 7.90821289 -17.17773438 8.00585938 C-18.00724609 8.05162109 -18.83675781 8.09738281 -19.69140625 8.14453125 C-20.82364624 8.21184448 -20.82364624 8.21184448 -21.97875977 8.28051758 C-24.54653264 7.92414953 -25.38113538 6.96119941 -27 5 C-26.34 4.34 -25.68 3.68 -25 3 C-25 3.66 -25 4.32 -25 5 C-21.95629957 4.9397287 -18.91732588 4.85260043 -15.875 4.75 C-15.0190625 4.73582031 -14.163125 4.72164063 -13.28125 4.70703125 C-7.60052378 4.48854178 -4.41885794 3.62201471 0 0 Z " fill="#02102D" transform="translate(118,92)"/>
<path d="M0 0 C0.33 0 0.66 0 1 0 C1.14695312 0.98097656 1.29390625 1.96195313 1.4453125 2.97265625 C2.78320692 11.2202608 4.70540351 18.64929501 8.10595703 26.30102539 C8.78559024 27.84701121 9.3991546 29.42172301 10 31 C9.67 31.66 9.34 32.32 9 33 C6.53461344 30.81007563 5.42095345 28.98987237 4.375 25.875 C3.57477307 23.19982058 3.57477307 23.19982058 2 21 C1.95907063 18.66702567 1.95758277 16.33294775 2 14 C1.34 14 0.68 14 0 14 C0 9.38 0 4.76 0 0 Z " fill="#031940" transform="translate(67,170)"/>
<path d="M0 0 C0.66 0 1.32 0 2 0 C2.05506505 1.52040718 2.09326375 3.04142704 2.125 4.5625 C2.14820312 5.40941406 2.17140625 6.25632813 2.1953125 7.12890625 C2 10 2 10 1 13.1875 C-0.26899664 18.0255497 -0.21808732 22.46448877 -0.125 27.4375 C-0.11597656 28.35982422 -0.10695313 29.28214844 -0.09765625 30.23242188 C-0.0742766 32.48855809 -0.04150916 34.74413684 0 37 C-0.33 37 -0.66 37 -1 37 C-2.17702346 32.32957089 -2.19129527 27.78441267 -2.1875 23 C-2.1884668 21.74546021 -2.1884668 21.74546021 -2.18945312 20.46557617 C-2.13060774 13.4877172 -1.37748872 6.8505466 0 0 Z " fill="#001033" transform="translate(83,139)"/>
<path d="M0 0 C0.33 0.66 0.66 1.32 1 2 C0.67 2.66 0.34 3.32 0 4 C5.28 4 10.56 4 16 4 C16 3.34 16 2.68 16 2 C17.32 2.33 18.64 2.66 20 3 C15.27213037 6.72943753 10.9177468 6.35415147 5.1875 6.1875 C4.30384766 6.17396484 3.42019531 6.16042969 2.50976562 6.14648438 C0.33957977 6.11129217 -1.83029033 6.05748985 -4 6 C-2.84826645 3.53199953 -1.95216435 1.95216435 0 0 Z " fill="#1D6DCB" transform="translate(97,91)"/>
<path d="M0 0 C2.97 0.495 2.97 0.495 6 1 C6 1.66 6 2.32 6 3 C7.32 3.33 8.64 3.66 10 4 C10 4.66 10 5.32 10 6 C10.66 6 11.32 6 12 6 C12 6.66 12 7.32 12 8 C12.66 8 13.32 8 14 8 C14 8.66 14 9.32 14 10 C14.66 10 15.32 10 16 10 C16.33 11.65 16.66 13.3 17 15 C16.05125 14.175 15.1025 13.35 14.125 12.5 C10.16005196 9.0886792 6.06030497 5.85940404 1.94140625 2.63671875 C1.30074219 2.09660156 0.66007813 1.55648437 0 1 C0 0.67 0 0.34 0 0 Z " fill="#000C28" transform="translate(213,83)"/>
<path d="M0 0 C4.72821645 2.36410822 6.08989404 11.38979761 7.76953125 16.20703125 C8.91867411 19.86940742 9.18657078 23.17529907 9 27 C8.34 27 7.68 27 7 27 C7 24.03 7 21.06 7 18 C6.34 18 5.68 18 5 18 C4.731875 16.989375 4.46375 15.97875 4.1875 14.9375 C3.43934828 12.27860109 2.52203151 9.82400975 1.375 7.3125 C0 4 0 4 0 0 Z " fill="#176CCC" transform="translate(242,117)"/>
<path d="M0 0 C0.66 0 1.32 0 2 0 C2.06058594 0.63808594 2.12117187 1.27617187 2.18359375 1.93359375 C2.26738281 2.75988281 2.35117188 3.58617187 2.4375 4.4375 C2.55931641 5.67306641 2.55931641 5.67306641 2.68359375 6.93359375 C2.78930815 8.98662025 2.78930815 8.98662025 4 10 C4.25146124 13.45114703 4.18522419 16.91577203 4.1875 20.375 C4.19974609 21.34695312 4.21199219 22.31890625 4.22460938 23.3203125 C4.22654297 24.25359375 4.22847656 25.186875 4.23046875 26.1484375 C4.23457764 27.00614746 4.23868652 27.86385742 4.24291992 28.74755859 C4 31 4 31 2 34 C2.00785522 33.05362671 2.00785522 33.05362671 2.01586914 32.08813477 C2.03657826 29.24626653 2.04964066 26.40441412 2.0625 23.5625 C2.07087891 22.56927734 2.07925781 21.57605469 2.08789062 20.55273438 C2.09272461 19.13637695 2.09272461 19.13637695 2.09765625 17.69140625 C2.10289307 16.81685791 2.10812988 15.94230957 2.11352539 15.04125977 C2.22784809 13.00559794 2.22784809 13.00559794 1 12 C0.76572222 9.98405418 0.58663876 7.961526 0.4375 5.9375 C0.35371094 4.83277344 0.26992187 3.72804687 0.18359375 2.58984375 C0.09271484 1.30787109 0.09271484 1.30787109 0 0 Z " fill="#1076E5" transform="translate(237,140)"/>
<path d="M0 0 C1.35015836 2.70031673 0.63106793 4.08174081 0 7 C-0.13918537 8.69157394 -0.2435836 10.38630373 -0.31640625 12.08203125 C-0.35830078 13.01337891 -0.40019531 13.94472656 -0.44335938 14.90429688 C-0.48267578 15.86400391 -0.52199219 16.82371094 -0.5625 17.8125 C-0.60568359 18.79154297 -0.64886719 19.77058594 -0.69335938 20.77929688 C-0.7990226 23.18607027 -0.90112327 25.59293983 -1 28 C-1.33 28 -1.66 28 -2 28 C-2.6331684 18.98865693 -3.1723784 10.04028922 -3 1 C-2.01 0.67 -1.02 0.34 0 0 Z " fill="#001035" transform="translate(68,140)"/>
<path d="M0 0 C1 2 1 2 0.6171875 3.8125 C-1.42181992 9.82220609 -4.03760752 15.39135969 -7 21 C-7.66 20.01 -8.32 19.02 -9 18 C-8.34 18 -7.68 18 -7 18 C-7 16.68 -7 15.36 -7 14 C-6.34 14 -5.68 14 -5 14 C-4.89042969 13.15695313 -4.78085938 12.31390625 -4.66796875 11.4453125 C-4.50941406 10.34960938 -4.35085937 9.25390625 -4.1875 8.125 C-4.03667969 7.03445312 -3.88585937 5.94390625 -3.73046875 4.8203125 C-3 2 -3 2 0 0 Z " fill="#000B25" transform="translate(236,177)"/>
<path d="M0 0 C0.33 0 0.66 0 1 0 C1.33328851 8.56674915 1.11584616 15.95073076 -2 24 C-2.66 24 -3.32 24 -4 24 C-3.35588614 18.44686304 -2.49942196 12.98744364 -1.4375 7.5 C-1.22963867 6.40945312 -1.22963867 6.40945312 -1.01757812 5.296875 C-0.68063335 3.53081963 -0.34064317 1.76534574 0 0 Z " fill="#031E46" transform="translate(252,168)"/>
<path d="M0 0 C0.66 0.33 1.32 0.66 2 1 C0.73884686 3.52230627 -0.37533425 3.88890155 -2.875 5.125 C-3.92300781 5.65480469 -3.92300781 5.65480469 -4.9921875 6.1953125 C-7 7 -7 7 -10 7 C-10 7.66 -10 8.32 -10 9 C-11.98 9.33 -13.96 9.66 -16 10 C-12.96086531 6.63052458 -9.93142307 4.69577825 -5.875 2.6875 C-4.29332031 1.88892578 -4.29332031 1.88892578 -2.6796875 1.07421875 C-1.79539062 0.71972656 -0.91109375 0.36523438 0 0 Z " fill="#1469CB" transform="translate(123,74)"/>
<path d="M0 0 C4.39577761 -0.05815112 8.79145598 -0.09364767 13.1875 -0.125 C14.43337891 -0.14175781 15.67925781 -0.15851563 16.96289062 -0.17578125 C18.16494141 -0.18222656 19.36699219 -0.18867187 20.60546875 -0.1953125 C22.26292114 -0.21102295 22.26292114 -0.21102295 23.95385742 -0.22705078 C27.03654165 0.00272371 29.21840962 0.6918151 32 2 C32 2.33 32 2.66 32 3 C29.36 3 26.72 3 24 3 C24 2.34 24 1.68 24 1 C16.08 1 8.16 1 0 1 C0 0.67 0 0.34 0 0 Z " fill="#010B22" transform="translate(144,65)"/>
<path d="M0 0 C1.40087634 4.3741649 0.00472816 7.06418675 -2 11 C-2.32613281 11.65097656 -2.65226563 12.30195313 -2.98828125 12.97265625 C-5.5891223 17.86304077 -5.5891223 17.86304077 -9 19 C-7.39369175 14.75707468 -5.4231838 10.72974893 -3.375 6.6875 C-3.05015625 6.04232422 -2.7253125 5.39714844 -2.390625 4.73242188 C-1.59558044 3.15402459 -0.79804366 1.57688306 0 0 Z " fill="#1667C0" transform="translate(233,188)"/>
<path d="M0 0 C-2.57516622 2.63746863 -4.54331396 3.21887499 -8.109375 3.29296875 C-9.65652231 3.27313353 -11.20353396 3.2375101 -12.75 3.1875 C-13.54277344 3.17396484 -14.33554688 3.16042969 -15.15234375 3.14648438 C-17.10185564 3.11125223 -19.05101626 3.05744821 -21 3 C-14.50150152 -0.52898593 -7.21659306 -0.15034569 0 0 Z " fill="#010D29" transform="translate(157,82)"/>
<path d="M0 0 C1.24546405 2.49092811 0.7767578 3.41080733 0 6 C-0.99 6 -1.98 6 -3 6 C-3 6.66 -3 7.32 -3 8 C-9.625 12 -9.625 12 -13 12 C-10.74410933 9.68753527 -8.37992111 7.55122145 -5.9375 5.4375 C-3.89357161 3.66761787 -1.91233177 1.91233177 0 0 Z " fill="#010F32" transform="translate(228,223)"/>
<path d="M0 0 C0.66 0.33 1.32 0.66 2 1 C0.69791667 2.43229167 -0.60416667 3.86458333 -1.90625 5.296875 C-3.36024492 7.22360515 -3.36024492 7.22360515 -3 11 C-4.65 11 -6.3 11 -8 11 C-6.68206814 5.33289301 -4.51290803 3.33562767 0 0 Z " fill="#0E71DE" transform="translate(105,84)"/>
<path d="M0 0 C0.99 0.33 1.98 0.66 3 1 C-0.9700218 5.21814817 -5.30840284 8.61227103 -10 12 C-10 10.68 -10 9.36 -10 8 C-9.01 8 -8.02 8 -7 8 C-6.67 7.01 -6.34 6.02 -6 5 C-5.34 5 -4.68 5 -4 5 C-4 4.34 -4 3.68 -4 3 C-2.68 2.67 -1.36 2.34 0 2 C0 1.34 0 0.68 0 0 Z " fill="#020C27" transform="translate(105,81)"/>
<path d="M0 0 C3.0390625 -0.29296875 3.0390625 -0.29296875 6.625 -0.1875 C7.81351563 -0.16042969 9.00203125 -0.13335937 10.2265625 -0.10546875 C11.14179687 -0.07066406 12.05703125 -0.03585938 13 0 C13 2.97 13 5.94 13 9 C12.67 9 12.34 9 12 9 C12 6.36 12 3.72 12 1 C8.37 1.33 4.74 1.66 1 2 C0.34 3.65 -0.32 5.3 -1 7 C-1.625 5.1875 -1.625 5.1875 -2 3 C-1.34 2.01 -0.68 1.02 0 0 Z " fill="#1B5CAC" transform="translate(70,139)"/>
<path d="M0 0 C0.66 0 1.32 0 2 0 C1.40984815 5.50808397 0.43336231 10.64878069 -1 16 C-1.33 16 -1.66 16 -2 16 C-2.2358396 10.22192976 -1.86783046 5.48675196 0 0 Z " fill="#1575E0" transform="translate(249,176)"/>
<path d="M0 0 C1.32 0 2.64 0 4 0 C4.23576736 7.62314474 3.83717315 14.58569409 2 22 C1.67 22 1.34 22 1 22 C1 18.04 1 14.08 1 10 C1.66 10 2.32 10 3 10 C3 7.03 3 4.06 3 1 C2.01 0.67 1.02 0.34 0 0 Z " fill="#1574DC" transform="translate(78,140)"/>
<path d="M0 0 C0.66 0.33 1.32 0.66 2 1 C1.01 1.33 0.02 1.66 -1 2 C-1 2.66 -1 3.32 -1 4 C-4.13498292 5.85776765 -6.37471432 6.20140476 -10 6 C-10.33 6.66 -10.66 7.32 -11 8 C-11.66 7.34 -12.32 6.68 -13 6 C-10.87959258 4.96966118 -8.75352092 3.95097146 -6.625 2.9375 C-5.44164063 2.36902344 -4.25828125 1.80054687 -3.0390625 1.21484375 C-2.03617188 0.81394531 -1.03328125 0.41304688 0 0 Z " fill="#01183A" transform="translate(133,85)"/>
<path d="M0 0 C-1 1 -1 1 -3.5625 1.0625 C-4.7690625 1.0315625 -4.7690625 1.0315625 -6 1 C-6 1.66 -6 2.32 -6 3 C-7.670625 3.2165625 -7.670625 3.2165625 -9.375 3.4375 C-12.82142047 3.78372035 -12.82142047 3.78372035 -15 5 C-15.66 4.34 -16.32 3.68 -17 3 C-14.92085336 2.29994051 -12.83648414 1.61537756 -10.75 0.9375 C-9.58984375 0.55464844 -8.4296875 0.17179687 -7.234375 -0.22265625 C-4.19922915 -0.95211763 -2.84296787 -1.11889082 0 0 Z " fill="#1667C4" transform="translate(142,70)"/>
<path d="M0 0 C1.32 0.33 2.64 0.66 4 1 C4 1.66 4 2.32 4 3 C4.66 3 5.32 3 6 3 C6.28875 3.804375 6.5775 4.60875 6.875 5.4375 C7.73262568 8.1326468 7.73262568 8.1326468 10 9 C10.625 11.5625 10.625 11.5625 11 14 C6.45924219 9.85989729 3.28157862 5.17609824 0 0 Z " fill="#176DCA" transform="translate(215,102)"/>
<path d="M0 0 C0.33 0 0.66 0 1 0 C1 1.65 1 3.3 1 5 C1.66 5.33 2.32 5.66 3 6 C2.195625 6.268125 1.39125 6.53625 0.5625 6.8125 C-0.283125 7.204375 -1.12875 7.59625 -2 8 C-2.33 8.99 -2.66 9.98 -3 11 C-3.66 11 -4.32 11 -5 11 C-3.55049545 7.2089881 -1.84827434 3.6125362 0 0 Z " fill="#1C5FAC" transform="translate(218,225)"/>
<path d="M0 0 C5.60461531 0.42089996 10.72086547 0.91613111 16 3 C16 3.33 16 3.66 16 4 C10.36718401 4.2396943 5.45461169 3.38529821 0 2 C0 1.34 0 0.68 0 0 Z " fill="#166FCF" transform="translate(176,69)"/>
<path d="M0 0 C1.32 0.33 2.64 0.66 4 1 C3.6390625 1.61488281 3.278125 2.22976562 2.90625 2.86328125 C2.4421875 3.67152344 1.978125 4.47976562 1.5 5.3125 C1.0359375 6.11300781 0.571875 6.91351563 0.09375 7.73828125 C-1.21767886 10.0314118 -1.21767886 10.0314118 -1 13 C-1.66 13 -2.32 13 -3 13 C-3 11.35 -3 9.7 -3 8 C-2.34 8 -1.68 8 -1 8 C-0.67 5.36 -0.34 2.72 0 0 Z " fill="#010B25" transform="translate(215,224)"/>
<path d="M0 0 C1.89551022 -0.05441656 3.7914792 -0.09298035 5.6875 -0.125 C6.74324219 -0.14820312 7.79898438 -0.17140625 8.88671875 -0.1953125 C12.02251859 0.00141271 14.17645373 0.66942346 17 2 C17 2.33 17 2.66 17 3 C15.52093108 3.02689216 14.04172517 3.04634621 12.5625 3.0625 C11.32693359 3.07990234 11.32693359 3.07990234 10.06640625 3.09765625 C8 3 8 3 7 2 C4.67182036 1.63239269 2.3381615 1.29758419 0 1 C0 0.67 0 0.34 0 0 Z " fill="#021231" transform="translate(164,82)"/>
<path d="M0 0 C3.21043882 1.38188453 5.04936365 2.92421903 7.25 5.625 C8.03117188 6.57246094 8.03117188 6.57246094 8.828125 7.5390625 C9.40820312 8.26222656 9.40820312 8.26222656 10 9 C9.01 9.495 9.01 9.495 8 10 C8 9.34 8 8.68 8 8 C6.68 7.34 5.36 6.68 4 6 C4 5.34 4 4.68 4 4 C2.68 3.34 1.36 2.68 0 2 C0 1.34 0 0.68 0 0 Z " fill="#166FD5" transform="translate(219,89)"/>
<path d="M0 0 C0.66 0.66 1.32 1.32 2 2 C1.625 4.125 1.625 4.125 1 6 C-0.98 6.33 -2.96 6.66 -5 7 C-2.25 1.125 -2.25 1.125 0 0 Z " fill="#0F0D0F" transform="translate(213,225)"/>
<path d="M0 0 C-1.31224548 3.93673644 -2.91910327 6.22719294 -6 9 C-6.25 6.75 -6.25 6.75 -6 4 C-2.75675676 0 -2.75675676 0 0 0 Z " fill="#1571D7" transform="translate(239,208)"/>
<path d="M0 0 C2.51699845 2.51699845 3.10964078 4.57554146 4 8 C3.625 10.375 3.625 10.375 3 12 C0.50494038 9.50494038 0.64051624 8.32671112 0.375 4.875 C0.30023438 3.96492187 0.22546875 3.05484375 0.1484375 2.1171875 C0.09945312 1.41851562 0.05046875 0.71984375 0 0 Z " fill="#031E49" transform="translate(232,128)"/>
<path d="M0 0 C6.52307692 0.49230769 6.52307692 0.49230769 8.9375 3.0625 C9.288125 3.701875 9.63875 4.34125 10 5 C9.67 5.66 9.34 6.32 9 7 C7.4972763 6.02501855 5.99788037 5.04490611 4.5 4.0625 C3.6646875 3.51722656 2.829375 2.97195312 1.96875 2.41015625 C1.3190625 1.94480469 0.669375 1.47945313 0 1 C0 0.67 0 0.34 0 0 Z " fill="#1670D1" transform="translate(200,91)"/>
<path d="M0 0 C0.33 0 0.66 0 1 0 C0.88601335 1.62580966 0.75844341 3.25067157 0.625 4.875 C0.55539063 5.77992188 0.48578125 6.68484375 0.4140625 7.6171875 C0 10 0 10 -2 12 C-2.66 10.35 -3.32 8.7 -4 7 C-3.01 7 -2.02 7 -1 7 C-0.67 4.69 -0.34 2.38 0 0 Z " fill="#2172CD" transform="translate(82,196)"/>
<path d="M0 0 C1 2 1 2 0.1875 5.5625 C-1 9 -1 9 -3 10 C-3.29296875 3.9453125 -3.29296875 3.9453125 -3 2 C-2.01 1.34 -1.02 0.68 0 0 Z " fill="#021231" transform="translate(236,177)"/>
<path d="M0 0 C2.97 0.495 2.97 0.495 6 1 C6.33 2.32 6.66 3.64 7 5 C7.66 5 8.32 5 9 5 C8.67 5.66 8.34 6.32 8 7 C6.66382648 6.02471263 5.3311249 5.04466681 4 4.0625 C3.2575 3.51722656 2.515 2.97195312 1.75 2.41015625 C1.1725 1.94480469 0.595 1.47945313 0 1 C0 0.67 0 0.34 0 0 Z " fill="#021335" transform="translate(213,83)"/>
<path d="M0 0 C0.66 0 1.32 0 2 0 C0.84414715 3.91211733 -0.35534962 6.8745041 -3 10 C-3 8.02 -3 6.04 -3 4 C-2.34 4 -1.68 4 -1 4 C-0.67 2.68 -0.34 1.36 0 0 Z " fill="#010D29" transform="translate(226,198)"/>
<path d="M0 0 C2.22825644 2.22825644 2.69239369 3.65761628 3.625 6.625 C4.01558594 7.85089844 4.01558594 7.85089844 4.4140625 9.1015625 C4.60742188 9.72804687 4.80078125 10.35453125 5 11 C3.0625 10 3.0625 10 1 8 C0.33450549 5.30075428 0.18319237 2.79368363 0 0 Z " fill="#03214A" transform="translate(72,192)"/>
<path d="M0 0 C4.875 4.625 4.875 4.625 6 8 C5.34 8 4.68 8 4 8 C3.67 7.34 3.34 6.68 3 6 C2.01 5.67 1.02 5.34 0 5 C0 3.35 0 1.7 0 0 Z " fill="#011231" transform="translate(223,114)"/>
<path d="M0 0 C0.33 0.66 0.66 1.32 1 2 C0.3125 4.0625 0.3125 4.0625 -1 6 C-3.125 6.75 -3.125 6.75 -5 7 C-3.47793991 4.37098712 -2.15634036 2.15634036 0 0 Z " fill="#031435" transform="translate(234,216)"/>
<path d="M0 0 C0.66 0 1.32 0 2 0 C2.33 2.97 2.66 5.94 3 9 C0.90250005 6.64031256 0.03094296 5.45383006 -0.1875 2.25 C-0.125625 1.5075 -0.06375 0.765 0 0 Z " fill="#010F2A" transform="translate(69,186)"/>
<path d="M0 0 C0.66 0 1.32 0 2 0 C1.67 2.64 1.34 5.28 1 8 C0.34 8 -0.32 8 -1 8 C-0.67 5.36 -0.34 2.72 0 0 Z " fill="#031636" transform="translate(249,184)"/>
<path d="M0 0 C0.33 0.66 0.66 1.32 1 2 C1.66 2 2.32 2 3 2 C3 4.64 3 7.28 3 10 C0.70366176 6.55549263 0.45983515 4.06187717 0 0 Z " fill="#1972D4" transform="translate(70,182)"/>
<path d="M0 0 C2.875 0.25 2.875 0.25 6 1 C7.375 3.0625 7.375 3.0625 8 5 C4.62496331 3.8141763 2.35277269 2.72426311 0 0 Z " fill="#01183D" transform="translate(205,78)"/>
</svg>
